<?xml version="1.0" encoding="UTF-8" standalone="no"?>
<svg width="104.775mm" height="45.8611mm"
 viewBox="0 0 297 130"
 xmlns="http://www.w3.org/2000/svg" xmlns:xlink="http://www.w3.org/1999/xlink"  version="1.2" baseProfile="tiny">
<title>Qt Svg Document</title>
<desc>Generated with Qt</desc>
<defs>
</defs>
<g fill="none" stroke="black" stroke-width="1" fill-rule="evenodd" stroke-linecap="square" stroke-linejoin="bevel" >

<g fill="#ffffff" fill-opacity="1" stroke="none" transform="matrix(1,0,0,1,0,0)"
font-family="Noto Sans" font-size="9" font-weight="400" font-style="normal" 
>
<path vector-effect="non-scaling-stroke" fill-rule="evenodd" d="M0,0 L297,0 L297,130 L0,130 L0,0"/>
</g>

<g fill="none" stroke="#ff0000" stroke-opacity="1" stroke-width="1" stroke-linecap="round" stroke-linejoin="round" transform="matrix(1,0,0,1,0,0)"
font-family="Noto Sans" font-size="9" font-weight="400" font-style="normal" 
>
<polyline fill="none" vector-effect="non-scaling-stroke" points="11,6 41,6 " />
<polyline fill="none" vector-effect="non-scaling-stroke" points="41,6 41,66 " />
<polyline fill="none" vector-effect="non-scaling-stroke" points="41,66 48,66 " />
<polyline fill="none" vector-effect="non-scaling-stroke" points="48,66 48,6 " />
<polyline fill="none" vector-effect="non-scaling-stroke" points="48,6 63,6 " />
<polyline fill="none" vector-effect="non-scaling-stroke" points="63,6 63,66 " />
<polyline fill="none" vector-effect="non-scaling-stroke" points="63,66 70,66 " />
<polyline fill="none" vector-effect="non-scaling-stroke" points="70,66 70,6 " />
<polyline fill="none" vector-effect="non-scaling-stroke" points="70,6 85,6 " />
<polyline fill="none" vector-effect="non-scaling-stroke" points="85,6 85,66 " />
<polyline fill="none" vector-effect="non-scaling-stroke" points="85,66 92,66 " />
<polyline fill="none" vector-effect="non-scaling-stroke" points="92,66 92,6 " />
<polyline fill="none" vector-effect="non-scaling-stroke" points="92,6 107,6 " />
<polyline fill="none" vector-effect="non-scaling-stroke" points="107,6 107,66 " />
<polyline fill="none" vector-effect="non-scaling-stroke" points="107,66 115,66 " />
<polyline fill="none" vector-effect="non-scaling-stroke" points="115,66 115,6 " />
<polyline fill="none" vector-effect="non-scaling-stroke" points="115,6 130,6 " />
<polyline fill="none" vector-effect="non-scaling-stroke" points="130,6 130,66 " />
<polyline fill="none" vector-effect="non-scaling-stroke" points="130,66 138,66 " />
<polyline fill="none" vector-effect="non-scaling-stroke" points="138,66 138,6 " />
<polyline fill="none" vector-effect="non-scaling-stroke" points="138,6 153,6 " />
<polyline fill="none" vector-effect="non-scaling-stroke" points="153,6 153,66 " />
<polyline fill="none" vector-effect="non-scaling-stroke" points="153,66 161,66 " />
<polyline fill="none" vector-effect="non-scaling-stroke" points="161,66 161,6 " />
<polyline fill="none" vector-effect="non-scaling-stroke" points="161,6 176,6 " />
<polyline fill="none" vector-effect="non-scaling-stroke" points="176,6 176,66 " />
<polyline fill="none" vector-effect="non-scaling-stroke" points="176,66 184,66 " />
<polyline fill="none" vector-effect="non-scaling-stroke" points="184,66 184,6 " />
<polyline fill="none" vector-effect="non-scaling-stroke" points="184,6 199,6 " />
<polyline fill="none" vector-effect="non-scaling-stroke" points="199,6 199,66 " />
<polyline fill="none" vector-effect="non-scaling-stroke" points="199,66 207,66 " />
<polyline fill="none" vector-effect="non-scaling-stroke" points="207,66 207,6 " />
<polyline fill="none" vector-effect="non-scaling-stroke" points="207,6 222,6 " />
<polyline fill="none" vector-effect="non-scaling-stroke" points="222,6 222,66 " />
<polyline fill="none" vector-effect="non-scaling-stroke" points="222,66 231,66 " />
<polyline fill="none" vector-effect="non-scaling-stroke" points="231,66 231,6 " />
<polyline fill="none" vector-effect="non-scaling-stroke" points="231,6 246,6 " />
<polyline fill="none" vector-effect="non-scaling-stroke" points="246,6 246,66 " />
<polyline fill="none" vector-effect="non-scaling-stroke" points="246,66 255,66 " />
<polyline fill="none" vector-effect="non-scaling-stroke" points="255,66 255,6 " />
<polyline fill="none" vector-effect="non-scaling-stroke" points="255,6 284,6 " />
<polyline fill="none" vector-effect="non-scaling-stroke" points="284,6 284,126 " />
<polyline fill="none" vector-effect="non-scaling-stroke" points="284,126 11,126 " />
<polyline fill="none" vector-effect="non-scaling-stroke" points="11,126 11,6 " />
</g>

<g fill="none" stroke="#000000" stroke-opacity="1" stroke-width="1" stroke-linecap="round" stroke-linejoin="round" transform="matrix(1,0,0,1,0,0)"
font-family="Noto Sans" font-size="9" font-weight="400" font-style="normal" 
>
<polyline fill="none" vector-effect="non-scaling-stroke" points="59,38 53,36 " />
<polyline fill="none" vector-effect="non-scaling-stroke" points="53,36 53,40 " />
<polyline fill="none" vector-effect="non-scaling-stroke" points="55,39 51,39 " />
<polyline fill="none" vector-effect="non-scaling-stroke" points="51,42 52,42 " />
<polyline fill="none" vector-effect="non-scaling-stroke" points="58,47 59,47 59,46 59,46 58,46 " />
<polyline fill="none" vector-effect="non-scaling-stroke" points="58,46 57,45 55,45 53,45 52,46 " />
<polyline fill="none" vector-effect="non-scaling-stroke" points="52,46 52,46 51,47 52,47 " />
<polyline fill="none" vector-effect="non-scaling-stroke" points="52,47 54,48 56,48 58,48 58,47 " />
<polyline fill="none" vector-effect="non-scaling-stroke" points="51,59 56,59 " />
<polyline fill="none" vector-effect="non-scaling-stroke" points="51,56 56,56 " />
<polyline fill="none" vector-effect="non-scaling-stroke" points="56,56 56,60 " />
<polyline fill="none" vector-effect="non-scaling-stroke" points="55,61 56,61 56,60 56,60 " />
<polyline fill="none" vector-effect="non-scaling-stroke" points="55,61 51,61 " />
<polyline fill="none" vector-effect="non-scaling-stroke" points="51,66 56,66 " />
<polyline fill="none" vector-effect="non-scaling-stroke" points="51,64 56,64 " />
<polyline fill="none" vector-effect="non-scaling-stroke" points="56,64 56,67 " />
<polyline fill="none" vector-effect="non-scaling-stroke" points="55,68 56,68 56,68 56,67 " />
<polyline fill="none" vector-effect="non-scaling-stroke" points="55,68 51,68 " />
<polyline fill="none" vector-effect="non-scaling-stroke" points="81,38 75,36 " />
<polyline fill="none" vector-effect="non-scaling-stroke" points="75,36 75,40 " />
<polyline fill="none" vector-effect="non-scaling-stroke" points="77,39 74,39 " />
</g>

<g fill="#000000" fill-opacity="1" stroke="none" transform="matrix(1,0,0,1,0,0)"
font-family="Noto Sans" font-size="9" font-weight="400" font-style="normal" 
>
<path vector-effect="non-scaling-stroke" fill-rule="evenodd" d="M74.5,42 C74.5,42.2761 74.2761,42.5 74,42.5 C73.7239,42.5 73.5,42.2761 73.5,42 C73.5,41.7239 73.7239,41.5 74,41.5 C74.2761,41.5 74.5,41.7239 74.5,42 "/>
</g>

<g fill="none" stroke="#000000" stroke-opacity="1" stroke-width="1" stroke-linecap="round" stroke-linejoin="round" transform="matrix(1,0,0,1,0,0)"
font-family="Noto Sans" font-size="9" font-weight="400" font-style="normal" 
>
<polyline fill="none" vector-effect="non-scaling-stroke" points="79,45 81,47 " />
<polyline fill="none" vector-effect="non-scaling-stroke" points="81,47 74,47 " />
<polyline fill="none" vector-effect="non-scaling-stroke" points="74,57 79,57 " />
<polyline fill="none" vector-effect="non-scaling-stroke" points="74,55 79,55 " />
<polyline fill="none" vector-effect="non-scaling-stroke" points="79,55 79,58 " />
<polyline fill="none" vector-effect="non-scaling-stroke" points="77,59 78,59 78,59 79,58 " />
<polyline fill="none" vector-effect="non-scaling-stroke" points="77,59 74,59 " />
<polyline fill="none" vector-effect="non-scaling-stroke" points="74,64 79,64 " />
<polyline fill="none" vector-effect="non-scaling-stroke" points="74,62 79,62 " />
<polyline fill="none" vector-effect="non-scaling-stroke" points="79,62 79,66 " />
<polyline fill="none" vector-effect="non-scaling-stroke" points="77,67 78,67 78,66 79,66 " />
<polyline fill="none" vector-effect="non-scaling-stroke" points="77,67 74,67 " />
<polyline fill="none" vector-effect="non-scaling-stroke" points="104,38 98,36 " />
<polyline fill="none" vector-effect="non-scaling-stroke" points="98,36 98,40 " />
<polyline fill="none" vector-effect="non-scaling-stroke" points="99,39 96,39 " />
<polyline fill="none" vector-effect="non-scaling-stroke" points="96,42 97,42 " />
<polyline fill="none" vector-effect="non-scaling-stroke" points="102,45 103,45 " />
<polyline fill="none" vector-effect="non-scaling-stroke" points="101,48 102,48 103,48 103,47 104,47 103,46 103,45 " />
<polyline fill="none" vector-effect="non-scaling-stroke" points="101,48 96,45 " />
<polyline fill="none" vector-effect="non-scaling-stroke" points="96,45 96,48 " />
<polyline fill="none" vector-effect="non-scaling-stroke" points="96,59 101,59 " />
<polyline fill="none" vector-effect="non-scaling-stroke" points="96,56 101,56 " />
<polyline fill="none" vector-effect="non-scaling-stroke" points="101,56 101,60 " />
<polyline fill="none" vector-effect="non-scaling-stroke" points="100,61 100,61 101,60 101,60 " />
<polyline fill="none" vector-effect="non-scaling-stroke" points="100,61 96,61 " />
<polyline fill="none" vector-effect="non-scaling-stroke" points="96,66 101,66 " />
<polyline fill="none" vector-effect="non-scaling-stroke" points="96,64 101,64 " />
<polyline fill="none" vector-effect="non-scaling-stroke" points="101,64 101,67 " />
<polyline fill="none" vector-effect="non-scaling-stroke" points="100,68 100,68 101,68 101,67 " />
<polyline fill="none" vector-effect="non-scaling-stroke" points="100,68 96,68 " />
<polyline fill="none" vector-effect="non-scaling-stroke" points="126,38 120,36 " />
<polyline fill="none" vector-effect="non-scaling-stroke" points="120,36 120,40 " />
<polyline fill="none" vector-effect="non-scaling-stroke" points="122,39 119,39 " />
</g>

<g fill="#000000" fill-opacity="1" stroke="none" transform="matrix(1,0,0,1,0,0)"
font-family="Noto Sans" font-size="9" font-weight="400" font-style="normal" 
>
<path vector-effect="non-scaling-stroke" fill-rule="evenodd" d="M119.5,42 C119.5,42.2761 119.276,42.5 119,42.5 C118.724,42.5 118.5,42.2761 118.5,42 C118.5,41.7239 118.724,41.5 119,41.5 C119.276,41.5 119.5,41.7239 119.5,42 "/>
</g>

<g fill="none" stroke="#000000" stroke-opacity="1" stroke-width="1" stroke-linecap="round" stroke-linejoin="round" transform="matrix(1,0,0,1,0,0)"
font-family="Noto Sans" font-size="9" font-weight="400" font-style="normal" 
>
<polyline fill="none" vector-effect="non-scaling-stroke" points="126,45 126,47 " />
<polyline fill="none" vector-effect="non-scaling-stroke" points="123,47 123,47 124,48 124,48 125,48 126,48 126,47 " />
<polyline fill="none" vector-effect="non-scaling-stroke" points="123,46 123,47 " />
<polyline fill="none" vector-effect="non-scaling-stroke" points="121,48 122,48 123,47 123,47 " />
<polyline fill="none" vector-effect="non-scaling-stroke" points="121,48 120,48 " />
<polyline fill="none" vector-effect="non-scaling-stroke" points="119,47 119,47 120,48 120,48 " />
<polyline fill="none" vector-effect="non-scaling-stroke" points="119,47 119,45 " />
<polyline fill="none" vector-effect="non-scaling-stroke" points="119,59 124,59 " />
<polyline fill="none" vector-effect="non-scaling-stroke" points="119,56 124,56 " />
<polyline fill="none" vector-effect="non-scaling-stroke" points="124,56 124,60 " />
<polyline fill="none" vector-effect="non-scaling-stroke" points="123,61 123,61 124,60 124,60 " />
<polyline fill="none" vector-effect="non-scaling-stroke" points="123,61 119,61 " />
<polyline fill="none" vector-effect="non-scaling-stroke" points="119,66 124,66 " />
<polyline fill="none" vector-effect="non-scaling-stroke" points="119,64 124,64 " />
<polyline fill="none" vector-effect="non-scaling-stroke" points="124,64 124,67 " />
<polyline fill="none" vector-effect="non-scaling-stroke" points="123,68 123,68 124,68 124,67 " />
<polyline fill="none" vector-effect="non-scaling-stroke" points="123,68 119,68 " />
<polyline fill="none" vector-effect="non-scaling-stroke" points="149,38 143,36 " />
<polyline fill="none" vector-effect="non-scaling-stroke" points="143,36 143,40 " />
<polyline fill="none" vector-effect="non-scaling-stroke" points="145,39 142,39 " />
</g>

<g fill="#000000" fill-opacity="1" stroke="none" transform="matrix(1,0,0,1,0,0)"
font-family="Noto Sans" font-size="9" font-weight="400" font-style="normal" 
>
<path vector-effect="non-scaling-stroke" fill-rule="evenodd" d="M142.5,42 C142.5,42.2761 142.276,42.5 142,42.5 C141.724,42.5 141.5,42.2761 141.5,42 C141.5,41.7239 141.724,41.5 142,41.5 C142.276,41.5 142.5,41.7239 142.5,42 "/>
</g>

<g fill="none" stroke="#000000" stroke-opacity="1" stroke-width="1" stroke-linecap="round" stroke-linejoin="round" transform="matrix(1,0,0,1,0,0)"
font-family="Noto Sans" font-size="9" font-weight="400" font-style="normal" 
>
<polyline fill="none" vector-effect="non-scaling-stroke" points="149,47 143,45 " />
<polyline fill="none" vector-effect="non-scaling-stroke" points="143,45 143,49 " />
<polyline fill="none" vector-effect="non-scaling-stroke" points="145,48 142,48 " />
<polyline fill="none" vector-effect="non-scaling-stroke" points="142,59 147,59 " />
<polyline fill="none" vector-effect="non-scaling-stroke" points="142,57 147,57 " />
<polyline fill="none" vector-effect="non-scaling-stroke" points="147,57 147,61 " />
<polyline fill="none" vector-effect="non-scaling-stroke" points="145,62 146,62 146,61 147,61 " />
<polyline fill="none" vector-effect="non-scaling-stroke" points="145,62 142,62 " />
<polyline fill="none" vector-effect="non-scaling-stroke" points="142,67 147,67 " />
<polyline fill="none" vector-effect="non-scaling-stroke" points="142,64 147,64 " />
<polyline fill="none" vector-effect="non-scaling-stroke" points="147,64 147,68 " />
<polyline fill="none" vector-effect="non-scaling-stroke" points="145,69 146,69 146,69 147,68 " />
<polyline fill="none" vector-effect="non-scaling-stroke" points="145,69 142,69 " />
<polyline fill="none" vector-effect="non-scaling-stroke" points="172,38 166,36 " />
<polyline fill="none" vector-effect="non-scaling-stroke" points="166,36 166,40 " />
<polyline fill="none" vector-effect="non-scaling-stroke" points="168,39 165,39 " />
</g>

<g fill="#000000" fill-opacity="1" stroke="none" transform="matrix(1,0,0,1,0,0)"
font-family="Noto Sans" font-size="9" font-weight="400" font-style="normal" 
>
<path vector-effect="non-scaling-stroke" fill-rule="evenodd" d="M165.5,42 C165.5,42.2761 165.276,42.5 165,42.5 C164.724,42.5 164.5,42.2761 164.5,42 C164.5,41.7239 164.724,41.5 165,41.5 C165.276,41.5 165.5,41.7239 165.5,42 "/>
</g>

<g fill="none" stroke="#000000" stroke-opacity="1" stroke-width="1" stroke-linecap="round" stroke-linejoin="round" transform="matrix(1,0,0,1,0,0)"
font-family="Noto Sans" font-size="9" font-weight="400" font-style="normal" 
>
<polyline fill="none" vector-effect="non-scaling-stroke" points="172,48 172,45 " />
<polyline fill="none" vector-effect="non-scaling-stroke" points="172,45 169,45 " />
<polyline fill="none" vector-effect="non-scaling-stroke" points="169,45 169,47 " />
<polyline fill="none" vector-effect="non-scaling-stroke" points="167,48 168,48 169,47 169,47 " />
<polyline fill="none" vector-effect="non-scaling-stroke" points="167,48 166,48 " />
<polyline fill="none" vector-effect="non-scaling-stroke" points="165,47 165,47 165,48 166,48 " />
<polyline fill="none" vector-effect="non-scaling-stroke" points="165,47 165,45 " />
<polyline fill="none" vector-effect="non-scaling-stroke" points="165,59 170,59 " />
<polyline fill="none" vector-effect="non-scaling-stroke" points="165,56 170,56 " />
<polyline fill="none" vector-effect="non-scaling-stroke" points="170,56 170,60 " />
<polyline fill="none" vector-effect="non-scaling-stroke" points="168,61 169,61 169,60 170,60 " />
<polyline fill="none" vector-effect="non-scaling-stroke" points="168,61 165,61 " />
<polyline fill="none" vector-effect="non-scaling-stroke" points="165,66 170,66 " />
<polyline fill="none" vector-effect="non-scaling-stroke" points="165,64 170,64 " />
<polyline fill="none" vector-effect="non-scaling-stroke" points="170,64 170,67 " />
<polyline fill="none" vector-effect="non-scaling-stroke" points="168,68 169,68 169,68 170,67 " />
<polyline fill="none" vector-effect="non-scaling-stroke" points="168,68 165,68 " />
<polyline fill="none" vector-effect="non-scaling-stroke" points="195,38 190,36 " />
<polyline fill="none" vector-effect="non-scaling-stroke" points="190,36 190,40 " />
<polyline fill="none" vector-effect="non-scaling-stroke" points="191,39 188,39 " />
</g>

<g fill="#000000" fill-opacity="1" stroke="none" transform="matrix(1,0,0,1,0,0)"
font-family="Noto Sans" font-size="9" font-weight="400" font-style="normal" 
>
<path vector-effect="non-scaling-stroke" fill-rule="evenodd" d="M188.5,42 C188.5,42.2761 188.276,42.5 188,42.5 C187.724,42.5 187.5,42.2761 187.5,42 C187.5,41.7239 187.724,41.5 188,41.5 C188.276,41.5 188.5,41.7239 188.5,42 "/>
</g>

<g fill="none" stroke="#000000" stroke-opacity="1" stroke-width="1" stroke-linecap="round" stroke-linejoin="round" transform="matrix(1,0,0,1,0,0)"
font-family="Noto Sans" font-size="9" font-weight="400" font-style="normal" 
>
<polyline fill="none" vector-effect="non-scaling-stroke" points="192,45 192,47 " />
<polyline fill="none" vector-effect="non-scaling-stroke" points="190,48 191,48 192,47 192,47 " />
</g>

<g fill="#000000" fill-opacity="1" stroke="none" transform="matrix(1,0,0,1,0,0)"
font-family="Noto Sans" font-size="9" font-weight="400" font-style="normal" 
>
<path vector-effect="non-scaling-stroke" fill-rule="evenodd" d="M190.5,48 C190.5,48.2761 190.276,48.5 190,48.5 C189.724,48.5 189.5,48.2761 189.5,48 C189.5,47.7239 189.724,47.5 190,47.5 C190.276,47.5 190.5,47.7239 190.5,48 "/>
</g>

<g fill="none" stroke="#000000" stroke-opacity="1" stroke-width="1" stroke-linecap="round" stroke-linejoin="round" transform="matrix(1,0,0,1,0,0)"
font-family="Noto Sans" font-size="9" font-weight="400" font-style="normal" 
>
<polyline fill="none" vector-effect="non-scaling-stroke" points="190,45 189,45 188,46 188,46 188,47 189,48 189,48 190,48 " />
<polyline fill="none" vector-effect="non-scaling-stroke" points="190,45 192,45 " />
<polyline fill="none" vector-effect="non-scaling-stroke" points="195,47 194,46 193,45 192,45 " />
<polyline fill="none" vector-effect="non-scaling-stroke" points="188,59 193,59 " />
<polyline fill="none" vector-effect="non-scaling-stroke" points="188,56 193,56 " />
<polyline fill="none" vector-effect="non-scaling-stroke" points="193,56 193,60 " />
<polyline fill="none" vector-effect="non-scaling-stroke" points="192,61 192,61 193,60 193,60 " />
<polyline fill="none" vector-effect="non-scaling-stroke" points="192,61 188,61 " />
<polyline fill="none" vector-effect="non-scaling-stroke" points="188,66 193,66 " />
<polyline fill="none" vector-effect="non-scaling-stroke" points="188,64 193,64 " />
<polyline fill="none" vector-effect="non-scaling-stroke" points="193,64 193,67 " />
<polyline fill="none" vector-effect="non-scaling-stroke" points="192,68 192,68 193,68 193,67 " />
<polyline fill="none" vector-effect="non-scaling-stroke" points="192,68 188,68 " />
<polyline fill="none" vector-effect="non-scaling-stroke" points="219,38 213,36 " />
<polyline fill="none" vector-effect="non-scaling-stroke" points="213,36 213,40 " />
<polyline fill="none" vector-effect="non-scaling-stroke" points="215,39 211,39 " />
<polyline fill="none" vector-effect="non-scaling-stroke" points="211,42 212,42 " />
<polyline fill="none" vector-effect="non-scaling-stroke" points="218,45 219,45 " />
<polyline fill="none" vector-effect="non-scaling-stroke" points="219,45 219,48 " />
<polyline fill="none" vector-effect="non-scaling-stroke" points="219,48 211,47 " />
<polyline fill="none" vector-effect="non-scaling-stroke" points="211,59 216,59 " />
<polyline fill="none" vector-effect="non-scaling-stroke" points="211,56 216,56 " />
<polyline fill="none" vector-effect="non-scaling-stroke" points="216,56 216,60 " />
<polyline fill="none" vector-effect="non-scaling-stroke" points="215,61 216,61 216,60 216,60 " />
<polyline fill="none" vector-effect="non-scaling-stroke" points="215,61 211,61 " />
<polyline fill="none" vector-effect="non-scaling-stroke" points="211,66 216,66 " />
<polyline fill="none" vector-effect="non-scaling-stroke" points="211,64 216,64 " />
<polyline fill="none" vector-effect="non-scaling-stroke" points="216,64 216,67 " />
<polyline fill="none" vector-effect="non-scaling-stroke" points="215,68 216,68 216,68 216,67 " />
<polyline fill="none" vector-effect="non-scaling-stroke" points="215,68 211,68 " />
<polyline fill="none" vector-effect="non-scaling-stroke" points="242,38 236,36 " />
<polyline fill="none" vector-effect="non-scaling-stroke" points="236,36 236,40 " />
<polyline fill="none" vector-effect="non-scaling-stroke" points="238,39 235,39 " />
</g>

<g fill="#000000" fill-opacity="1" stroke="none" transform="matrix(1,0,0,1,0,0)"
font-family="Noto Sans" font-size="9" font-weight="400" font-style="normal" 
>
<path vector-effect="non-scaling-stroke" fill-rule="evenodd" d="M235.5,42 C235.5,42.2761 235.276,42.5 235,42.5 C234.724,42.5 234.5,42.2761 234.5,42 C234.5,41.7239 234.724,41.5 235,41.5 C235.276,41.5 235.5,41.7239 235.5,42 "/>
</g>

<g fill="none" stroke="#000000" stroke-opacity="1" stroke-width="1" stroke-linecap="round" stroke-linejoin="round" transform="matrix(1,0,0,1,0,0)"
font-family="Noto Sans" font-size="9" font-weight="400" font-style="normal" 
>
<polyline fill="none" vector-effect="non-scaling-stroke" points="236,48 237,48 " />
<polyline fill="none" vector-effect="non-scaling-stroke" points="237,48 238,48 239,47 239,47 239,46 238,45 237,45 " />
<polyline fill="none" vector-effect="non-scaling-stroke" points="237,45 236,45 " />
<polyline fill="none" vector-effect="non-scaling-stroke" points="236,45 236,45 235,46 235,46 235,47 235,48 236,48 " />
<polyline fill="none" vector-effect="non-scaling-stroke" points="239,47 239,47 240,48 240,48 241,48 242,48 242,47 " />
<polyline fill="none" vector-effect="non-scaling-stroke" points="242,47 242,46 241,45 241,45 240,45 239,46 239,46 239,47 " />
<polyline fill="none" vector-effect="non-scaling-stroke" points="235,59 240,59 " />
<polyline fill="none" vector-effect="non-scaling-stroke" points="235,56 240,56 " />
<polyline fill="none" vector-effect="non-scaling-stroke" points="240,56 240,60 " />
<polyline fill="none" vector-effect="non-scaling-stroke" points="238,61 239,61 240,60 240,60 " />
<polyline fill="none" vector-effect="non-scaling-stroke" points="238,61 235,61 " />
<polyline fill="none" vector-effect="non-scaling-stroke" points="235,66 240,66 " />
<polyline fill="none" vector-effect="non-scaling-stroke" points="235,64 240,64 " />
<polyline fill="none" vector-effect="non-scaling-stroke" points="240,64 240,67 " />
<polyline fill="none" vector-effect="non-scaling-stroke" points="238,68 239,68 240,68 240,67 " />
<polyline fill="none" vector-effect="non-scaling-stroke" points="238,68 235,68 " />
<polyline fill="none" vector-effect="non-scaling-stroke" points="266,38 260,36 " />
<polyline fill="none" vector-effect="non-scaling-stroke" points="260,36 260,40 " />
<polyline fill="none" vector-effect="non-scaling-stroke" points="262,39 259,39 " />
</g>

<g fill="#000000" fill-opacity="1" stroke="none" transform="matrix(1,0,0,1,0,0)"
font-family="Noto Sans" font-size="9" font-weight="400" font-style="normal" 
>
<path vector-effect="non-scaling-stroke" fill-rule="evenodd" d="M259.5,42 C259.5,42.2761 259.276,42.5 259,42.5 C258.724,42.5 258.5,42.2761 258.5,42 C258.5,41.7239 258.724,41.5 259,41.5 C259.276,41.5 259.5,41.7239 259.5,42 "/>
</g>

<g fill="none" stroke="#000000" stroke-opacity="1" stroke-width="1" stroke-linecap="round" stroke-linejoin="round" transform="matrix(1,0,0,1,0,0)"
font-family="Noto Sans" font-size="9" font-weight="400" font-style="normal" 
>
<polyline fill="none" vector-effect="non-scaling-stroke" points="262,48 262,47 " />
<polyline fill="none" vector-effect="non-scaling-stroke" points="263,45 263,45 262,46 262,46 262,47 " />
<polyline fill="none" vector-effect="non-scaling-stroke" points="263,45 264,45 " />
<polyline fill="none" vector-effect="non-scaling-stroke" points="264,48 265,48 266,47 266,47 266,46 265,45 265,45 264,45 " />
<polyline fill="none" vector-effect="non-scaling-stroke" points="264,48 262,48 " />
<polyline fill="none" vector-effect="non-scaling-stroke" points="259,46 259,47 261,48 262,48 " />
<polyline fill="none" vector-effect="non-scaling-stroke" points="259,59 263,59 " />
<polyline fill="none" vector-effect="non-scaling-stroke" points="259,56 263,56 " />
<polyline fill="none" vector-effect="non-scaling-stroke" points="263,56 263,60 " />
<polyline fill="none" vector-effect="non-scaling-stroke" points="262,61 263,61 263,60 263,60 " />
<polyline fill="none" vector-effect="non-scaling-stroke" points="262,61 259,61 " />
<polyline fill="none" vector-effect="non-scaling-stroke" points="259,66 263,66 " />
<polyline fill="none" vector-effect="non-scaling-stroke" points="259,64 263,64 " />
<polyline fill="none" vector-effect="non-scaling-stroke" points="263,64 263,67 " />
<polyline fill="none" vector-effect="non-scaling-stroke" points="262,68 263,68 263,68 263,67 " />
<polyline fill="none" vector-effect="non-scaling-stroke" points="262,68 259,68 " />
</g>
</g>
</svg>
