0
SECTION
2
ENTITIES
0
MTEXT
62
0
10
63.800000000000004
20
-40.625
40
4
1
kerf = 0.2 mm\Pthickness = 4
50
0
0
MTEXT
62
0
10
25.8
20
-8.125
40
4
1
3.6 ~ 3.8
50
-90
0
MTEXT
62
0
10
37.7
20
-8.125
40
4
1
3.7 ~ 3.9
50
-90
0
MTEXT
62
0
10
49.7
20
-8.125
40
4
1
3.8 ~ 4.0
50
-90
0
MTEXT
62
0
10
61.8
20
-8.125
40
4
1
3.9 ~ 4.1
50
-90
0
MTEXT
62
0
10
74
20
-8.125
40
4
1
4.0 ~ 4.2
50
-90
0
MTEXT
62
0
10
86.3
20
-8.125
40
4
1
4.1 ~ 4.3
50
-90
0
MTEXT
62
0
10
98.7
20
-8.125
40
4
1
4.2 ~ 4.4
50
-90
0
MTEXT
62
0
10
111.19999999999999
20
-8.125
40
4
1
4.3 ~ 4.5
50
-90
0
MTEXT
62
0
10
123.8
20
-8.125
40
4
1
4.4 ~ 4.6
50
-90
0
MTEXT
62
0
10
136.49999999999997
20
-8.125
40
4
1
4.5 ~ 4.7
50
-90
0
LWPOLYLINE
62
1
39
0.01
10
-0.1
20
0.1
10
16.1
20
0.1
10
16.1
20
-32.4
10
19.7
20
-32.4
10
19.7
20
0.1
10
27.900000000000002
20
0.1
10
27.900000000000002
20
-32.4
10
31.599999999999998
20
-32.4
10
31.599999999999998
20
0.1
10
39.800000000000004
20
0.1
10
39.800000000000004
20
-32.4
10
43.6
20
-32.4
10
43.6
20
0.1
10
51.800000000000004
20
0.1
10
51.800000000000004
20
-32.4
10
55.7
20
-32.4
10
55.7
20
0.1
10
63.900000000000006
20
0.1
10
63.900000000000006
20
-32.4
10
67.9
20
-32.4
10
67.9
20
0.1
10
76.1
20
0.1
10
76.1
20
-32.4
10
80.2
20
-32.4
10
80.2
20
0.1
10
88.39999999999999
20
0.1
10
88.39999999999999
20
-32.4
10
92.60000000000001
20
-32.4
10
92.60000000000001
20
0.1
10
100.8
20
0.1
10
100.8
20
-32.4
10
105.10000000000001
20
-32.4
10
105.10000000000001
20
0.1
10
113.3
20
0.1
10
113.3
20
-32.4
10
117.7
20
-32.4
10
117.7
20
0.1
10
125.89999999999999
20
0.1
10
125.89999999999999
20
-32.4
10
130.4
20
-32.4
10
130.4
20
0.1
10
146.6
20
0.1
10
146.6
20
-65.1
10
-0.1
20
-65.1
10
-0.1
20
0.1
0
ENDSEC
0
EOF