0
SECTION
2
ENTITIES
0
LWPOLYLINE
62
1
39
0.01
10
-0.1
20
0.1
10
16.1
20
0.1
10
16.1
20
-32.4
10
19.9
20
-32.4
10
19.9
20
0.1
10
28.1
20
0.1
10
28.1
20
-32.4
10
32.0
20
-32.4
10
32.0
20
0.1
10
40.2
20
0.1
10
40.2
20
-32.4
10
44.2
20
-32.4
10
44.2
20
0.1
10
52.4
20
0.1
10
52.4
20
-32.4
10
56.5
20
-32.4
10
56.5
20
0.1
10
64.7
20
0.1
10
64.7
20
-32.4
10
68.9
20
-32.4
10
68.9
20
0.1
10
77.1
20
0.1
10
77.1
20
-32.4
10
81.4
20
-32.4
10
81.4
20
0.1
10
89.6
20
0.1
10
89.6
20
-32.4
10
94.0
20
-32.4
10
94.0
20
0.1
10
102.2
20
0.1
10
102.2
20
-32.4
10
106.7
20
-32.4
10
106.7
20
0.1
10
114.9
20
0.1
10
114.9
20
-32.4
10
119.5
20
-32.4
10
119.5
20
0.1
10
127.7
20
0.1
10
127.7
20
-32.4
10
132.4
20
-32.4
10
132.4
20
0.1
10
148.6
20
0.1
10
148.6
20
-65.1
10
-0.1
20
-65.1
10
-0.1
20
0.1
0
MTEXT
62
0
10
26.0
20
-16.25
40
4
1
4.0 mm
50
-90
0
MTEXT
62
0
10
38.1
20
-16.25
40
4
1
4.1 mm
50
-90
0
MTEXT
62
0
10
50.3
20
-16.25
40
4
1
4.2 mm
50
-90
0
MTEXT
62
0
10
62.6
20
-16.25
40
4
1
4.3 mm
50
-90
0
MTEXT
62
0
10
75.0
20
-16.25
40
4
1
4.4 mm
50
-90
0
MTEXT
62
0
10
87.5
20
-16.25
40
4
1
4.5 mm
50
-90
0
MTEXT
62
0
10
100.1
20
-16.25
40
4
1
4.6 mm
50
-90
0
MTEXT
62
0
10
112.8
20
-16.25
40
4
1
4.7 mm
50
-90
0
MTEXT
62
0
10
125.6
20
-16.25
40
4
1
4.8 mm
50
-90
0
MTEXT
62
0
10
138.5
20
-16.25
40
4
1
4.9 mm
50
-90
0
ENDSEC
0
EOF
