0
SECTION
2
ENTITIES
0
LWPOLYLINE
62
1
39
0.01
10
-0.1
20
0.1
10
16.1
20
0.1
10
16.1
20
-32.4
10
19.9
20
-32.4
10
19.9
20
0.1
10
28.1
20
0.1
10
28.1
20
-32.4
10
32
20
-32.4
10
32
20
0.1
10
40.2
20
0.1
10
40.2
20
-32.4
10
44.2
20
-32.4
10
44.2
20
0.1
10
52.400000000000006
20
0.1
10
52.400000000000006
20
-32.4
10
56.5
20
-32.4
10
56.5
20
0.1
10
64.69999999999999
20
0.1
10
64.69999999999999
20
-32.4
10
68.9
20
-32.4
10
68.9
20
0.1
10
77.1
20
0.1
10
77.1
20
-32.4
10
81.4
20
-32.4
10
81.4
20
0.1
10
89.6
20
0.1
10
89.6
20
-32.4
10
94
20
-32.4
10
94
20
0.1
10
102.19999999999999
20
0.1
10
102.19999999999999
20
-32.4
10
106.7
20
-32.4
10
106.7
20
0.1
10
114.89999999999999
20
0.1
10
114.89999999999999
20
-32.4
10
119.5
20
-32.4
10
119.5
20
0.1
10
127.69999999999999
20
0.1
10
127.69999999999999
20
-32.4
10
132.4
20
-32.4
10
132.4
20
0.1
10
148.6
20
0.1
10
148.6
20
-65.1
10
-0.1
20
-65.1
10
-0.1
20
0.1
0
ENDSEC
0
EOF